<?xml version="1.0" encoding="UTF-8" standalone="no"?>
<!DOCTYPE svg PUBLIC "-//W3C//DTD SVG 1.1//EN"
 "http://www.w3.org/Graphics/SVG/1.1/DTD/svg11.dtd">
<!-- Generated by graphviz version 2.36.0 (20140111.2315)
 -->
<!-- Title: controllers_diagram Pages: 1 -->
<svg width="520pt" height="582pt"
 viewBox="0.00 0.00 520.00 582.00" xmlns="http://www.w3.org/2000/svg" xmlns:xlink="http://www.w3.org/1999/xlink">
<g id="graph0" class="graph" transform="scale(1 1) rotate(0) translate(4 578)">
<title>controllers_diagram</title>
<polygon fill="white" stroke="none" points="-4,4 -4,-578 516,-578 516,4 -4,4"/>
<!-- _diagram_info -->
<g id="node1" class="node"><title>_diagram_info</title>
<text text-anchor="start" x="116" y="-441.6" font-family="Times,serif" font-size="13.00">Controllers diagram</text>
<text text-anchor="start" x="116" y="-427.6" font-family="Times,serif" font-size="13.00">Date: Jan 09 2015 &#45; 14:21</text>
<text text-anchor="start" x="116" y="-413.6" font-family="Times,serif" font-size="13.00">Migration version: 20140521163751</text>
<text text-anchor="start" x="116" y="-399.6" font-family="Times,serif" font-size="13.00">Generated by RailRoady 1.3.0</text>
<text text-anchor="start" x="116" y="-385.6" font-family="Times,serif" font-size="13.00">http://railroady.prestonlee.com</text>
</g>
<!-- AreasController -->
<g id="node2" class="node"><title>AreasController</title>
<path fill="none" stroke="black" d="M12,-252.5C12,-252.5 92,-252.5 92,-252.5 98,-252.5 104,-258.5 104,-264.5 104,-264.5 104,-333.5 104,-333.5 104,-339.5 98,-345.5 92,-345.5 92,-345.5 12,-345.5 12,-345.5 6,-345.5 0,-339.5 0,-333.5 0,-333.5 0,-264.5 0,-264.5 0,-258.5 6,-252.5 12,-252.5"/>
<text text-anchor="middle" x="52" y="-330.3" font-family="Times,serif" font-size="14.00">AreasController</text>
<polyline fill="none" stroke="black" points="0,-322.5 104,-322.5 "/>
<text text-anchor="start" x="8" y="-307.3" font-family="Times,serif" font-size="14.00">index</text>
<polyline fill="none" stroke="black" points="0,-299.5 104,-299.5 "/>
<polyline fill="none" stroke="black" points="0,-275.5 104,-275.5 "/>
<text text-anchor="start" x="8" y="-260.3" font-family="Times,serif" font-size="14.00">_layout</text>
</g>
<!-- ReportCriteriaController -->
<g id="node3" class="node"><title>ReportCriteriaController</title>
<path fill="none" stroke="black" d="M372,-108.5C372,-108.5 500,-108.5 500,-108.5 506,-108.5 512,-114.5 512,-120.5 512,-120.5 512,-309.5 512,-309.5 512,-315.5 506,-321.5 500,-321.5 500,-321.5 372,-321.5 372,-321.5 366,-321.5 360,-315.5 360,-309.5 360,-309.5 360,-120.5 360,-120.5 360,-114.5 366,-108.5 372,-108.5"/>
<text text-anchor="middle" x="436" y="-306.3" font-family="Times,serif" font-size="14.00">ReportCriteriaController</text>
<polyline fill="none" stroke="black" points="360,-298.5 512,-298.5 "/>
<text text-anchor="start" x="368" y="-283.3" font-family="Times,serif" font-size="14.00">create</text>
<text text-anchor="start" x="368" y="-268.3" font-family="Times,serif" font-size="14.00">destroy</text>
<text text-anchor="start" x="368" y="-253.3" font-family="Times,serif" font-size="14.00">edit</text>
<text text-anchor="start" x="368" y="-238.3" font-family="Times,serif" font-size="14.00">index</text>
<text text-anchor="start" x="368" y="-223.3" font-family="Times,serif" font-size="14.00">new</text>
<text text-anchor="start" x="368" y="-208.3" font-family="Times,serif" font-size="14.00">show</text>
<text text-anchor="start" x="368" y="-193.3" font-family="Times,serif" font-size="14.00">update</text>
<polyline fill="none" stroke="black" points="360,-185.5 512,-185.5 "/>
<polyline fill="none" stroke="black" points="360,-161.5 512,-161.5 "/>
<text text-anchor="start" x="368" y="-146.3" font-family="Times,serif" font-size="14.00">_layout</text>
<text text-anchor="start" x="368" y="-131.3" font-family="Times,serif" font-size="14.00">report_criterium_params</text>
<text text-anchor="start" x="368" y="-116.3" font-family="Times,serif" font-size="14.00">set_report_criterium</text>
</g>
<!-- ReportsController -->
<g id="node4" class="node"><title>ReportsController</title>
<path fill="none" stroke="black" d="M372,-360.5C372,-360.5 462,-360.5 462,-360.5 468,-360.5 474,-366.5 474,-372.5 474,-372.5 474,-561.5 474,-561.5 474,-567.5 468,-573.5 462,-573.5 462,-573.5 372,-573.5 372,-573.5 366,-573.5 360,-567.5 360,-561.5 360,-561.5 360,-372.5 360,-372.5 360,-366.5 366,-360.5 372,-360.5"/>
<text text-anchor="middle" x="417" y="-558.3" font-family="Times,serif" font-size="14.00">ReportsController</text>
<polyline fill="none" stroke="black" points="360,-550.5 474,-550.5 "/>
<text text-anchor="start" x="368" y="-535.3" font-family="Times,serif" font-size="14.00">create</text>
<text text-anchor="start" x="368" y="-520.3" font-family="Times,serif" font-size="14.00">destroy</text>
<text text-anchor="start" x="368" y="-505.3" font-family="Times,serif" font-size="14.00">edit</text>
<text text-anchor="start" x="368" y="-490.3" font-family="Times,serif" font-size="14.00">index</text>
<text text-anchor="start" x="368" y="-475.3" font-family="Times,serif" font-size="14.00">new</text>
<text text-anchor="start" x="368" y="-460.3" font-family="Times,serif" font-size="14.00">show</text>
<text text-anchor="start" x="368" y="-445.3" font-family="Times,serif" font-size="14.00">update</text>
<polyline fill="none" stroke="black" points="360,-437.5 474,-437.5 "/>
<polyline fill="none" stroke="black" points="360,-413.5 474,-413.5 "/>
<text text-anchor="start" x="368" y="-398.3" font-family="Times,serif" font-size="14.00">_layout</text>
<text text-anchor="start" x="368" y="-383.3" font-family="Times,serif" font-size="14.00">report_params</text>
<text text-anchor="start" x="368" y="-368.3" font-family="Times,serif" font-size="14.00">set_report</text>
</g>
<!-- ApplicationController -->
<g id="node5" class="node"><title>ApplicationController</title>
<path fill="none" stroke="black" d="M12,-0.5C12,-0.5 124,-0.5 124,-0.5 130,-0.5 136,-6.5 136,-12.5 136,-12.5 136,-82.5 136,-82.5 136,-88.5 130,-94.5 124,-94.5 124,-94.5 12,-94.5 12,-94.5 6,-94.5 0,-88.5 0,-82.5 0,-82.5 0,-12.5 0,-12.5 0,-6.5 6,-0.5 12,-0.5"/>
<text text-anchor="middle" x="68" y="-79.3" font-family="Times,serif" font-size="14.00">ApplicationController</text>
<polyline fill="none" stroke="black" points="0,-71.5 136,-71.5 "/>
<polyline fill="none" stroke="black" points="0,-47.5 136,-47.5 "/>
<polyline fill="none" stroke="black" points="0,-23.5 136,-23.5 "/>
<text text-anchor="start" x="8" y="-8.3" font-family="Times,serif" font-size="14.00">_layout</text>
</g>
<!-- BlsColumnMappersController -->
<g id="node6" class="node"><title>BlsColumnMappersController</title>
<path fill="none" stroke="black" d="M156,-126.5C156,-126.5 314,-126.5 314,-126.5 320,-126.5 326,-132.5 326,-138.5 326,-138.5 326,-327.5 326,-327.5 326,-333.5 320,-339.5 314,-339.5 314,-339.5 156,-339.5 156,-339.5 150,-339.5 144,-333.5 144,-327.5 144,-327.5 144,-138.5 144,-138.5 144,-132.5 150,-126.5 156,-126.5"/>
<text text-anchor="middle" x="235" y="-324.3" font-family="Times,serif" font-size="14.00">BlsColumnMappersController</text>
<polyline fill="none" stroke="black" points="144,-316.5 326,-316.5 "/>
<text text-anchor="start" x="152" y="-301.3" font-family="Times,serif" font-size="14.00">create</text>
<text text-anchor="start" x="152" y="-286.3" font-family="Times,serif" font-size="14.00">destroy</text>
<text text-anchor="start" x="152" y="-271.3" font-family="Times,serif" font-size="14.00">edit</text>
<text text-anchor="start" x="152" y="-256.3" font-family="Times,serif" font-size="14.00">index</text>
<text text-anchor="start" x="152" y="-241.3" font-family="Times,serif" font-size="14.00">new</text>
<text text-anchor="start" x="152" y="-226.3" font-family="Times,serif" font-size="14.00">show</text>
<text text-anchor="start" x="152" y="-211.3" font-family="Times,serif" font-size="14.00">update</text>
<polyline fill="none" stroke="black" points="144,-203.5 326,-203.5 "/>
<polyline fill="none" stroke="black" points="144,-179.5 326,-179.5 "/>
<text text-anchor="start" x="152" y="-164.3" font-family="Times,serif" font-size="14.00">_layout</text>
<text text-anchor="start" x="152" y="-149.3" font-family="Times,serif" font-size="14.00">bls_column_mapper_params</text>
<text text-anchor="start" x="152" y="-134.3" font-family="Times,serif" font-size="14.00">set_bls_column_mapper</text>
</g>
</g>
</svg>
