<?xml version="1.0" encoding="UTF-8" standalone="no"?>
<!DOCTYPE svg PUBLIC "-//W3C//DTD SVG 1.1//EN"
 "http://www.w3.org/Graphics/SVG/1.1/DTD/svg11.dtd">
<!-- Generated by graphviz version 2.36.0 (20140111.2315)
 -->
<!-- Title: models_diagram Pages: 1 -->
<svg width="978pt" height="568pt"
 viewBox="0.00 0.00 978.00 568.00" xmlns="http://www.w3.org/2000/svg" xmlns:xlink="http://www.w3.org/1999/xlink">
<g id="graph0" class="graph" transform="scale(1 1) rotate(0) translate(4 564)">
<title>models_diagram</title>
<polygon fill="white" stroke="none" points="-4,4 -4,-564 974,-564 974,4 -4,4"/>
<!-- _diagram_info -->
<g id="node1" class="node"><title>_diagram_info</title>
<text text-anchor="start" x="8" y="-530.6" font-family="Times,serif" font-size="13.00">Models diagram</text>
<text text-anchor="start" x="8" y="-516.6" font-family="Times,serif" font-size="13.00">Date: Jan 09 2015 &#45; 14:21</text>
<text text-anchor="start" x="8" y="-502.6" font-family="Times,serif" font-size="13.00">Migration version: 20140521163751</text>
<text text-anchor="start" x="8" y="-488.6" font-family="Times,serif" font-size="13.00">Generated by RailRoady 1.3.0</text>
<text text-anchor="start" x="8" y="-474.6" font-family="Times,serif" font-size="13.00">http://railroady.prestonlee.com</text>
</g>
<!-- AreaType -->
<g id="node2" class="node"><title>AreaType</title>
<path fill="none" stroke="black" d="M553.5,-453C553.5,-453 660.5,-453 660.5,-453 666.5,-453 672.5,-459 672.5,-465 672.5,-465 672.5,-547 672.5,-547 672.5,-553 666.5,-559 660.5,-559 660.5,-559 553.5,-559 553.5,-559 547.5,-559 541.5,-553 541.5,-547 541.5,-547 541.5,-465 541.5,-465 541.5,-459 547.5,-453 553.5,-453"/>
<text text-anchor="middle" x="607" y="-543.8" font-family="Times,serif" font-size="14.00">AreaType</text>
<polyline fill="none" stroke="black" points="541.5,-536 672.5,-536 "/>
<text text-anchor="start" x="549.5" y="-520.8" font-family="Times,serif" font-size="14.00">id :integer</text>
<text text-anchor="start" x="549.5" y="-505.8" font-family="Times,serif" font-size="14.00">code :string</text>
<text text-anchor="start" x="549.5" y="-490.8" font-family="Times,serif" font-size="14.00">name :string</text>
<text text-anchor="start" x="549.5" y="-475.8" font-family="Times,serif" font-size="14.00">created_at :datetime</text>
<text text-anchor="start" x="549.5" y="-460.8" font-family="Times,serif" font-size="14.00">updated_at :datetime</text>
</g>
<!-- Area -->
<g id="node10" class="node"><title>Area</title>
<path fill="none" stroke="black" d="M553.5,-264C553.5,-264 660.5,-264 660.5,-264 666.5,-264 672.5,-270 672.5,-276 672.5,-276 672.5,-388 672.5,-388 672.5,-394 666.5,-400 660.5,-400 660.5,-400 553.5,-400 553.5,-400 547.5,-400 541.5,-394 541.5,-388 541.5,-388 541.5,-276 541.5,-276 541.5,-270 547.5,-264 553.5,-264"/>
<text text-anchor="middle" x="607" y="-384.8" font-family="Times,serif" font-size="14.00">Area</text>
<polyline fill="none" stroke="black" points="541.5,-377 672.5,-377 "/>
<text text-anchor="start" x="549.5" y="-361.8" font-family="Times,serif" font-size="14.00">id :integer</text>
<text text-anchor="start" x="549.5" y="-346.8" font-family="Times,serif" font-size="14.00">code :integer</text>
<text text-anchor="start" x="549.5" y="-331.8" font-family="Times,serif" font-size="14.00">area_type_id :integer</text>
<text text-anchor="start" x="549.5" y="-316.8" font-family="Times,serif" font-size="14.00">name :string</text>
<text text-anchor="start" x="549.5" y="-301.8" font-family="Times,serif" font-size="14.00">state :string</text>
<text text-anchor="start" x="549.5" y="-286.8" font-family="Times,serif" font-size="14.00">created_at :datetime</text>
<text text-anchor="start" x="549.5" y="-271.8" font-family="Times,serif" font-size="14.00">updated_at :datetime</text>
</g>
<!-- AreaType&#45;&gt;Area -->
<g id="edge1" class="edge"><title>AreaType&#45;&gt;Area</title>
<path fill="none" stroke="#da4f11" d="M607,-444.603C607,-433.491 607,-421.751 607,-410.224"/>
<ellipse fill="none" stroke="#da4f11" cx="607" cy="-448.928" rx="4" ry="4"/>
<polygon fill="#da4f11" stroke="#da4f11" points="607,-410.169 611.5,-400.169 607,-405.169 607,-400.169 607,-400.169 607,-400.169 607,-405.169 602.5,-400.169 607,-410.169 607,-410.169"/>
</g>
<!-- ReportCriterium -->
<g id="node3" class="node"><title>ReportCriterium</title>
<path fill="none" stroke="black" d="M239,-38C239,-38 355,-38 355,-38 361,-38 367,-44 367,-50 367,-50 367,-162 367,-162 367,-168 361,-174 355,-174 355,-174 239,-174 239,-174 233,-174 227,-168 227,-162 227,-162 227,-50 227,-50 227,-44 233,-38 239,-38"/>
<text text-anchor="middle" x="297" y="-158.8" font-family="Times,serif" font-size="14.00">ReportCriterium</text>
<polyline fill="none" stroke="black" points="227,-151 367,-151 "/>
<text text-anchor="start" x="235" y="-135.8" font-family="Times,serif" font-size="14.00">id :integer</text>
<text text-anchor="start" x="235" y="-120.8" font-family="Times,serif" font-size="14.00">title :string</text>
<text text-anchor="start" x="235" y="-105.8" font-family="Times,serif" font-size="14.00">created_at :datetime</text>
<text text-anchor="start" x="235" y="-90.8" font-family="Times,serif" font-size="14.00">updated_at :datetime</text>
<text text-anchor="start" x="235" y="-75.8" font-family="Times,serif" font-size="14.00">report_id :integer</text>
<text text-anchor="start" x="235" y="-60.8" font-family="Times,serif" font-size="14.00">criteriable_id :integer</text>
<text text-anchor="start" x="235" y="-45.8" font-family="Times,serif" font-size="14.00">criteriable_type :string</text>
</g>
<!-- OccupationGroup -->
<g id="node4" class="node"><title>OccupationGroup</title>
<path fill="none" stroke="black" d="M702.5,-453C702.5,-453 809.5,-453 809.5,-453 815.5,-453 821.5,-459 821.5,-465 821.5,-465 821.5,-547 821.5,-547 821.5,-553 815.5,-559 809.5,-559 809.5,-559 702.5,-559 702.5,-559 696.5,-559 690.5,-553 690.5,-547 690.5,-547 690.5,-465 690.5,-465 690.5,-459 696.5,-453 702.5,-453"/>
<text text-anchor="middle" x="756" y="-543.8" font-family="Times,serif" font-size="14.00">OccupationGroup</text>
<polyline fill="none" stroke="black" points="690.5,-536 821.5,-536 "/>
<text text-anchor="start" x="698.5" y="-520.8" font-family="Times,serif" font-size="14.00">id :integer</text>
<text text-anchor="start" x="698.5" y="-505.8" font-family="Times,serif" font-size="14.00">code :integer</text>
<text text-anchor="start" x="698.5" y="-490.8" font-family="Times,serif" font-size="14.00">name :string</text>
<text text-anchor="start" x="698.5" y="-475.8" font-family="Times,serif" font-size="14.00">created_at :datetime</text>
<text text-anchor="start" x="698.5" y="-460.8" font-family="Times,serif" font-size="14.00">updated_at :datetime</text>
</g>
<!-- Report -->
<g id="node5" class="node"><title>Report</title>
<path fill="none" stroke="black" d="M244.5,-460.5C244.5,-460.5 351.5,-460.5 351.5,-460.5 357.5,-460.5 363.5,-466.5 363.5,-472.5 363.5,-472.5 363.5,-539.5 363.5,-539.5 363.5,-545.5 357.5,-551.5 351.5,-551.5 351.5,-551.5 244.5,-551.5 244.5,-551.5 238.5,-551.5 232.5,-545.5 232.5,-539.5 232.5,-539.5 232.5,-472.5 232.5,-472.5 232.5,-466.5 238.5,-460.5 244.5,-460.5"/>
<text text-anchor="middle" x="298" y="-536.3" font-family="Times,serif" font-size="14.00">Report</text>
<polyline fill="none" stroke="black" points="232.5,-528.5 363.5,-528.5 "/>
<text text-anchor="start" x="240.5" y="-513.3" font-family="Times,serif" font-size="14.00">id :integer</text>
<text text-anchor="start" x="240.5" y="-498.3" font-family="Times,serif" font-size="14.00">title :string</text>
<text text-anchor="start" x="240.5" y="-483.3" font-family="Times,serif" font-size="14.00">created_at :datetime</text>
<text text-anchor="start" x="240.5" y="-468.3" font-family="Times,serif" font-size="14.00">updated_at :datetime</text>
</g>
<!-- Report&#45;&gt;ReportCriterium -->
<g id="edge2" class="edge"><title>Report&#45;&gt;ReportCriterium</title>
<path fill="none" stroke="#2094e4" d="M242.669,-454.07C233.394,-442.534 225.127,-429.629 220,-416 193.71,-346.115 201.533,-320.347 220,-248 225.679,-225.754 235.667,-203.235 246.606,-182.919"/>
<ellipse fill="none" stroke="#2094e4" cx="245.345" cy="-457.266" rx="4.00002" ry="4.00002"/>
<polygon fill="#2094e4" stroke="#2094e4" points="246.671,-182.802 255.451,-176.232 249.093,-178.428 251.514,-174.053 251.514,-174.053 251.514,-174.053 249.093,-178.428 247.577,-171.874 246.671,-182.802 246.671,-182.802"/>
</g>
<!-- Industry -->
<g id="node7" class="node"><title>Industry</title>
<path fill="none" stroke="black" d="M241,-249C241,-249 355,-249 355,-249 361,-249 367,-255 367,-261 367,-261 367,-403 367,-403 367,-409 361,-415 355,-415 355,-415 241,-415 241,-415 235,-415 229,-409 229,-403 229,-403 229,-261 229,-261 229,-255 235,-249 241,-249"/>
<text text-anchor="middle" x="298" y="-399.8" font-family="Times,serif" font-size="14.00">Industry</text>
<polyline fill="none" stroke="black" points="229,-392 367,-392 "/>
<text text-anchor="start" x="237" y="-376.8" font-family="Times,serif" font-size="14.00">id :integer</text>
<text text-anchor="start" x="237" y="-361.8" font-family="Times,serif" font-size="14.00">code :integer</text>
<text text-anchor="start" x="237" y="-346.8" font-family="Times,serif" font-size="14.00">name :string</text>
<text text-anchor="start" x="237" y="-331.8" font-family="Times,serif" font-size="14.00">display_level :integer</text>
<text text-anchor="start" x="237" y="-316.8" font-family="Times,serif" font-size="14.00">selectable :boolean</text>
<text text-anchor="start" x="237" y="-301.8" font-family="Times,serif" font-size="14.00">sort_sequence :integer</text>
<text text-anchor="start" x="237" y="-286.8" font-family="Times,serif" font-size="14.00">created_at :datetime</text>
<text text-anchor="start" x="237" y="-271.8" font-family="Times,serif" font-size="14.00">updated_at :datetime</text>
<text text-anchor="start" x="237" y="-256.8" font-family="Times,serif" font-size="14.00">ce_code :integer</text>
</g>
<!-- Report&#45;&gt;Industry -->
<g id="edge4" class="edge"><title>Report&#45;&gt;Industry</title>
<path fill="none" stroke="#f3f7a6" d="M298,-450.248C298,-442.215 298,-433.76 298,-425.223"/>
<polygon fill="#f3f7a6" stroke="#f3f7a6" points="298,-450.258 293.5,-460.258 298,-455.258 298,-460.258 298,-460.258 298,-460.258 298,-455.258 302.5,-460.258 298,-450.258 298,-450.258"/>
<polygon fill="#f3f7a6" stroke="#f3f7a6" points="298,-425.183 302.5,-415.183 298,-420.183 298,-415.183 298,-415.183 298,-415.183 298,-420.183 293.5,-415.183 298,-425.183 298,-425.183"/>
</g>
<!-- Report&#45;&gt;Area -->
<g id="edge5" class="edge"><title>Report&#45;&gt;Area</title>
<path fill="none" stroke="#52db90" d="M373.25,-486.253C421.398,-471.961 483.664,-449.049 532,-416 535.998,-413.266 539.929,-410.278 543.767,-407.11"/>
<polygon fill="#52db90" stroke="#52db90" points="373.111,-486.293 362.253,-484.764 368.31,-487.689 363.509,-489.085 363.509,-489.085 363.509,-489.085 368.31,-487.689 364.765,-493.406 373.111,-486.293 373.111,-486.293"/>
<polygon fill="#52db90" stroke="#52db90" points="543.963,-406.94 554.462,-403.776 547.736,-403.66 551.51,-400.38 551.51,-400.38 551.51,-400.38 547.736,-403.66 548.557,-396.983 543.963,-406.94 543.963,-406.94"/>
</g>
<!-- Occupation -->
<g id="node11" class="node"><title>Occupation</title>
<path fill="none" stroke="black" d="M397,-256.5C397,-256.5 511,-256.5 511,-256.5 517,-256.5 523,-262.5 523,-268.5 523,-268.5 523,-395.5 523,-395.5 523,-401.5 517,-407.5 511,-407.5 511,-407.5 397,-407.5 397,-407.5 391,-407.5 385,-401.5 385,-395.5 385,-395.5 385,-268.5 385,-268.5 385,-262.5 391,-256.5 397,-256.5"/>
<text text-anchor="middle" x="454" y="-392.3" font-family="Times,serif" font-size="14.00">Occupation</text>
<polyline fill="none" stroke="black" points="385,-384.5 523,-384.5 "/>
<text text-anchor="start" x="393" y="-369.3" font-family="Times,serif" font-size="14.00">id :integer</text>
<text text-anchor="start" x="393" y="-354.3" font-family="Times,serif" font-size="14.00">code :integer</text>
<text text-anchor="start" x="393" y="-339.3" font-family="Times,serif" font-size="14.00">name :string</text>
<text text-anchor="start" x="393" y="-324.3" font-family="Times,serif" font-size="14.00">display_level :integer</text>
<text text-anchor="start" x="393" y="-309.3" font-family="Times,serif" font-size="14.00">selectable :boolean</text>
<text text-anchor="start" x="393" y="-294.3" font-family="Times,serif" font-size="14.00">sort_sequence :integer</text>
<text text-anchor="start" x="393" y="-279.3" font-family="Times,serif" font-size="14.00">created_at :datetime</text>
<text text-anchor="start" x="393" y="-264.3" font-family="Times,serif" font-size="14.00">updated_at :datetime</text>
</g>
<!-- Report&#45;&gt;Occupation -->
<g id="edge3" class="edge"><title>Report&#45;&gt;Occupation</title>
<path fill="none" stroke="#5497e0" d="M345.549,-452.575C356.252,-440.774 367.862,-427.973 379.374,-415.28"/>
<polygon fill="#5497e0" stroke="#5497e0" points="345.298,-452.851 335.247,-457.235 341.939,-456.554 338.58,-460.258 338.58,-460.258 338.58,-460.258 341.939,-456.554 341.913,-463.281 345.298,-452.851 345.298,-452.851"/>
<polygon fill="#5497e0" stroke="#5497e0" points="379.415,-415.234 389.467,-410.85 382.775,-411.531 386.134,-407.827 386.134,-407.827 386.134,-407.827 382.775,-411.531 382.8,-404.804 379.415,-415.234 379.415,-415.234"/>
</g>
<!-- DataType -->
<g id="node12" class="node"><title>DataType</title>
<path fill="none" stroke="black" d="M45.5,-264C45.5,-264 160.5,-264 160.5,-264 166.5,-264 172.5,-270 172.5,-276 172.5,-276 172.5,-388 172.5,-388 172.5,-394 166.5,-400 160.5,-400 160.5,-400 45.5,-400 45.5,-400 39.5,-400 33.5,-394 33.5,-388 33.5,-388 33.5,-276 33.5,-276 33.5,-270 39.5,-264 45.5,-264"/>
<text text-anchor="middle" x="103" y="-384.8" font-family="Times,serif" font-size="14.00">DataType</text>
<polyline fill="none" stroke="black" points="33.5,-377 172.5,-377 "/>
<text text-anchor="start" x="41.5" y="-361.8" font-family="Times,serif" font-size="14.00">id :integer</text>
<text text-anchor="start" x="41.5" y="-346.8" font-family="Times,serif" font-size="14.00">code :integer</text>
<text text-anchor="start" x="41.5" y="-331.8" font-family="Times,serif" font-size="14.00">name :string</text>
<text text-anchor="start" x="41.5" y="-316.8" font-family="Times,serif" font-size="14.00">footnote_code :integer</text>
<text text-anchor="start" x="41.5" y="-301.8" font-family="Times,serif" font-size="14.00">created_at :datetime</text>
<text text-anchor="start" x="41.5" y="-286.8" font-family="Times,serif" font-size="14.00">updated_at :datetime</text>
<text text-anchor="start" x="41.5" y="-271.8" font-family="Times,serif" font-size="14.00">data_category :string</text>
</g>
<!-- Report&#45;&gt;DataType -->
<g id="edge6" class="edge"><title>Report&#45;&gt;DataType</title>
<path fill="none" stroke="#9a1c12" d="M232.205,-454.098C217.105,-441.909 201.294,-428.731 187,-416 183.814,-413.162 180.59,-410.237 177.357,-407.258"/>
<polygon fill="#9a1c12" stroke="#9a1c12" points="232.226,-454.114 237.208,-463.883 236.125,-457.244 240.024,-460.374 240.024,-460.374 240.024,-460.374 236.125,-457.244 242.841,-456.864 232.226,-454.114 232.226,-454.114"/>
<polygon fill="#9a1c12" stroke="#9a1c12" points="177.123,-407.04 172.874,-396.931 173.465,-403.632 169.807,-400.223 169.807,-400.223 169.807,-400.223 173.465,-403.632 166.739,-403.516 177.123,-407.04 177.123,-407.04"/>
</g>
<!-- State -->
<g id="node6" class="node"><title>State</title>
<path fill="none" stroke="black" d="M851.5,-453C851.5,-453 958.5,-453 958.5,-453 964.5,-453 970.5,-459 970.5,-465 970.5,-465 970.5,-547 970.5,-547 970.5,-553 964.5,-559 958.5,-559 958.5,-559 851.5,-559 851.5,-559 845.5,-559 839.5,-553 839.5,-547 839.5,-547 839.5,-465 839.5,-465 839.5,-459 845.5,-453 851.5,-453"/>
<text text-anchor="middle" x="905" y="-543.8" font-family="Times,serif" font-size="14.00">State</text>
<polyline fill="none" stroke="black" points="839.5,-536 970.5,-536 "/>
<text text-anchor="start" x="847.5" y="-520.8" font-family="Times,serif" font-size="14.00">id :integer</text>
<text text-anchor="start" x="847.5" y="-505.8" font-family="Times,serif" font-size="14.00">code :integer</text>
<text text-anchor="start" x="847.5" y="-490.8" font-family="Times,serif" font-size="14.00">name :string</text>
<text text-anchor="start" x="847.5" y="-475.8" font-family="Times,serif" font-size="14.00">created_at :datetime</text>
<text text-anchor="start" x="847.5" y="-460.8" font-family="Times,serif" font-size="14.00">updated_at :datetime</text>
</g>
<!-- StateMsa -->
<g id="node9" class="node"><title>StateMsa</title>
<path fill="none" stroke="black" d="M851.5,-271.5C851.5,-271.5 958.5,-271.5 958.5,-271.5 964.5,-271.5 970.5,-277.5 970.5,-283.5 970.5,-283.5 970.5,-380.5 970.5,-380.5 970.5,-386.5 964.5,-392.5 958.5,-392.5 958.5,-392.5 851.5,-392.5 851.5,-392.5 845.5,-392.5 839.5,-386.5 839.5,-380.5 839.5,-380.5 839.5,-283.5 839.5,-283.5 839.5,-277.5 845.5,-271.5 851.5,-271.5"/>
<text text-anchor="middle" x="905" y="-377.3" font-family="Times,serif" font-size="14.00">StateMsa</text>
<polyline fill="none" stroke="black" points="839.5,-369.5 970.5,-369.5 "/>
<text text-anchor="start" x="847.5" y="-354.3" font-family="Times,serif" font-size="14.00">id :integer</text>
<text text-anchor="start" x="847.5" y="-339.3" font-family="Times,serif" font-size="14.00">state_id :integer</text>
<text text-anchor="start" x="847.5" y="-324.3" font-family="Times,serif" font-size="14.00">msa_code :integer</text>
<text text-anchor="start" x="847.5" y="-309.3" font-family="Times,serif" font-size="14.00">msa_name :string</text>
<text text-anchor="start" x="847.5" y="-294.3" font-family="Times,serif" font-size="14.00">created_at :datetime</text>
<text text-anchor="start" x="847.5" y="-279.3" font-family="Times,serif" font-size="14.00">updated_at :datetime</text>
</g>
<!-- State&#45;&gt;StateMsa -->
<g id="edge7" class="edge"><title>State&#45;&gt;StateMsa</title>
<path fill="none" stroke="#be8b36" d="M905,-444.776C905,-431.2 905,-416.681 905,-402.751"/>
<ellipse fill="none" stroke="#be8b36" cx="905" cy="-448.928" rx="4" ry="4"/>
<polygon fill="#be8b36" stroke="#be8b36" points="905,-402.735 909.5,-392.735 905,-397.735 905,-392.735 905,-392.735 905,-392.735 905,-397.735 900.5,-392.735 905,-402.735 905,-402.735"/>
</g>
<!-- Industry&#45;&gt;ReportCriterium -->
<g id="edge9" class="edge"><title>Industry&#45;&gt;ReportCriterium</title>
<path fill="none" stroke="#ba5f04" d="M297.597,-240.724C297.514,-222.033 297.426,-202.502 297.345,-184.324"/>
<ellipse fill="none" stroke="#ba5f04" cx="297.615" cy="-244.863" rx="4" ry="4"/>
<polygon fill="#ba5f04" stroke="#ba5f04" points="297.344,-184.086 301.799,-174.066 297.322,-179.086 297.299,-174.086 297.299,-174.086 297.299,-174.086 297.322,-179.086 292.8,-174.107 297.344,-184.086 297.344,-184.086"/>
</g>
<!-- OccupationalStatistic -->
<g id="node8" class="node"><title>OccupationalStatistic</title>
<path fill="none" stroke="black" d="M397,-0.5C397,-0.5 511,-0.5 511,-0.5 517,-0.5 523,-6.5 523,-12.5 523,-12.5 523,-199.5 523,-199.5 523,-205.5 517,-211.5 511,-211.5 511,-211.5 397,-211.5 397,-211.5 391,-211.5 385,-205.5 385,-199.5 385,-199.5 385,-12.5 385,-12.5 385,-6.5 391,-0.5 397,-0.5"/>
<text text-anchor="middle" x="454" y="-196.3" font-family="Times,serif" font-size="14.00">OccupationalStatistic</text>
<polyline fill="none" stroke="black" points="385,-188.5 523,-188.5 "/>
<text text-anchor="start" x="393" y="-173.3" font-family="Times,serif" font-size="14.00">id :integer</text>
<text text-anchor="start" x="393" y="-158.3" font-family="Times,serif" font-size="14.00">seasonal_id :integer</text>
<text text-anchor="start" x="393" y="-143.3" font-family="Times,serif" font-size="14.00">year :integer</text>
<text text-anchor="start" x="393" y="-128.3" font-family="Times,serif" font-size="14.00">period :string</text>
<text text-anchor="start" x="393" y="-113.3" font-family="Times,serif" font-size="14.00">area_id :integer</text>
<text text-anchor="start" x="393" y="-98.3" font-family="Times,serif" font-size="14.00">industry_id :integer</text>
<text text-anchor="start" x="393" y="-83.3" font-family="Times,serif" font-size="14.00">occupation_id :integer</text>
<text text-anchor="start" x="393" y="-68.3" font-family="Times,serif" font-size="14.00">data_type_id :integer</text>
<text text-anchor="start" x="393" y="-53.3" font-family="Times,serif" font-size="14.00">created_at :datetime</text>
<text text-anchor="start" x="393" y="-38.3" font-family="Times,serif" font-size="14.00">updated_at :datetime</text>
<text text-anchor="start" x="393" y="-23.3" font-family="Times,serif" font-size="14.00">value :decimal</text>
<text text-anchor="start" x="393" y="-8.3" font-family="Times,serif" font-size="14.00">original_series :string</text>
</g>
<!-- Industry&#45;&gt;OccupationalStatistic -->
<g id="edge8" class="edge"><title>Industry&#45;&gt;OccupationalStatistic</title>
<path fill="none" stroke="#62cbf2" d="M359.988,-241.992C366.25,-233 372.657,-223.8 379.036,-214.64"/>
<ellipse fill="none" stroke="#62cbf2" cx="357.489" cy="-245.58" rx="4.00002" ry="4.00002"/>
<polygon fill="#62cbf2" stroke="#62cbf2" points="379.167,-214.452 388.575,-208.817 382.025,-210.349 384.882,-206.246 384.882,-206.246 384.882,-206.246 382.025,-210.349 381.19,-203.674 379.167,-214.452 379.167,-214.452"/>
</g>
<!-- Area&#45;&gt;ReportCriterium -->
<g id="edge11" class="edge"><title>Area&#45;&gt;ReportCriterium</title>
<path fill="none" stroke="#0ceec4" d="M547.361,-258.665C542.431,-254.726 537.298,-251.114 532,-248 470.657,-211.943 435.663,-250.774 376,-212 363.722,-204.021 352.635,-193.442 342.913,-182.069"/>
<ellipse fill="none" stroke="#0ceec4" cx="550.43" cy="-261.245" rx="4.00002" ry="4.00002"/>
<polygon fill="#0ceec4" stroke="#0ceec4" points="342.724,-181.838 339.889,-171.245 339.563,-177.964 336.402,-174.09 336.402,-174.09 336.402,-174.09 339.563,-177.964 332.916,-176.935 342.724,-181.838 342.724,-181.838"/>
</g>
<!-- Area&#45;&gt;OccupationalStatistic -->
<g id="edge10" class="edge"><title>Area&#45;&gt;OccupationalStatistic</title>
<path fill="none" stroke="#668050" d="M556.553,-257.142C547.678,-244.15 538.273,-230.38 528.899,-216.657"/>
<ellipse fill="none" stroke="#668050" cx="558.839" cy="-260.49" rx="4.00002" ry="4.00002"/>
<polygon fill="#668050" stroke="#668050" points="528.713,-216.383 526.788,-205.587 525.893,-212.254 523.072,-208.126 523.072,-208.126 523.072,-208.126 525.893,-212.254 519.356,-210.664 528.713,-216.383 528.713,-216.383"/>
</g>
<!-- Occupation&#45;&gt;ReportCriterium -->
<g id="edge13" class="edge"><title>Occupation&#45;&gt;ReportCriterium</title>
<path fill="none" stroke="#caa333" d="M397.091,-249.805C381.645,-227.768 364.99,-204.005 349.782,-182.307"/>
<ellipse fill="none" stroke="#caa333" cx="399.425" cy="-253.136" rx="4.00002" ry="4.00002"/>
<polygon fill="#caa333" stroke="#caa333" points="349.77,-182.29 347.715,-171.518 346.9,-178.195 344.03,-174.101 344.03,-174.101 344.03,-174.101 346.9,-178.195 340.345,-176.683 349.77,-182.29 349.77,-182.29"/>
</g>
<!-- Occupation&#45;&gt;OccupationalStatistic -->
<g id="edge12" class="edge"><title>Occupation&#45;&gt;OccupationalStatistic</title>
<path fill="none" stroke="#5fbdf0" d="M454,-248.231C454,-239.558 454,-230.634 454,-221.688"/>
<ellipse fill="none" stroke="#5fbdf0" cx="454" cy="-252.411" rx="4" ry="4"/>
<polygon fill="#5fbdf0" stroke="#5fbdf0" points="454,-221.589 458.5,-211.589 454,-216.589 454,-211.589 454,-211.589 454,-211.589 454,-216.589 449.5,-211.589 454,-221.589 454,-221.589"/>
</g>
<!-- DataType&#45;&gt;ReportCriterium -->
<g id="edge15" class="edge"><title>DataType&#45;&gt;ReportCriterium</title>
<path fill="none" stroke="#463d0f" d="M173.87,-257.814C187.761,-242.883 202.035,-227.112 215,-212 223.14,-202.512 231.498,-192.349 239.62,-182.22"/>
<ellipse fill="none" stroke="#463d0f" cx="171.092" cy="-260.789" rx="4.00002" ry="4.00002"/>
<polygon fill="#463d0f" stroke="#463d0f" points="239.843,-181.94 249.593,-176.921 242.958,-178.029 246.073,-174.118 246.073,-174.118 246.073,-174.118 242.958,-178.029 242.553,-171.314 239.843,-181.94 239.843,-181.94"/>
</g>
<!-- DataType&#45;&gt;OccupationalStatistic -->
<g id="edge14" class="edge"><title>DataType&#45;&gt;OccupationalStatistic</title>
<path fill="none" stroke="#967238" d="M179.46,-270.494C192.488,-262.049 206.263,-254.166 220,-248 284.916,-218.862 316.455,-250.956 376,-212 376.19,-211.876 376.38,-211.751 376.569,-211.625"/>
<ellipse fill="none" stroke="#967238" cx="176.055" cy="-272.748" rx="4.00002" ry="4.00002"/>
<polygon fill="#967238" stroke="#967238" points="376.804,-211.455 387.538,-209.216 380.848,-208.515 384.893,-205.576 384.893,-205.576 384.893,-205.576 380.848,-208.515 382.247,-201.936 376.804,-211.455 376.804,-211.455"/>
</g>
<!-- BlsColumnMapper -->
<g id="node13" class="node"><title>BlsColumnMapper</title>
<path fill="none" stroke="black" d="M12,-38C12,-38 194,-38 194,-38 200,-38 206,-44 206,-50 206,-50 206,-162 206,-162 206,-168 200,-174 194,-174 194,-174 12,-174 12,-174 6,-174 0,-168 0,-162 0,-162 0,-50 0,-50 0,-44 6,-38 12,-38"/>
<text text-anchor="middle" x="103" y="-158.8" font-family="Times,serif" font-size="14.00">BlsColumnMapper</text>
<polyline fill="none" stroke="black" points="0,-151 206,-151 "/>
<text text-anchor="start" x="8" y="-135.8" font-family="Times,serif" font-size="14.00">id :integer</text>
<text text-anchor="start" x="8" y="-120.8" font-family="Times,serif" font-size="14.00">web_column_name :string</text>
<text text-anchor="start" x="8" y="-105.8" font-family="Times,serif" font-size="14.00">application_object_attribute :string</text>
<text text-anchor="start" x="8" y="-90.8" font-family="Times,serif" font-size="14.00">application_object :string</text>
<text text-anchor="start" x="8" y="-75.8" font-family="Times,serif" font-size="14.00">created_at :datetime</text>
<text text-anchor="start" x="8" y="-60.8" font-family="Times,serif" font-size="14.00">updated_at :datetime</text>
<text text-anchor="start" x="8" y="-45.8" font-family="Times,serif" font-size="14.00">data_type_id :integer</text>
</g>
<!-- DataType&#45;&gt;BlsColumnMapper -->
<g id="edge16" class="edge"><title>DataType&#45;&gt;BlsColumnMapper</title>
<path fill="none" stroke="#3cb625" d="M103,-255.706C103,-232.709 103,-207.392 103,-184.267"/>
<ellipse fill="none" stroke="#3cb625" cx="103" cy="-259.793" rx="4" ry="4"/>
<polygon fill="#3cb625" stroke="#3cb625" points="103,-184.16 107.5,-174.16 103,-179.16 103,-174.16 103,-174.16 103,-174.16 103,-179.16 98.5,-174.16 103,-184.16 103,-184.16"/>
</g>
<!-- Seasonal -->
<g id="node14" class="node"><title>Seasonal</title>
<path fill="none" stroke="black" d="M702.5,-279C702.5,-279 809.5,-279 809.5,-279 815.5,-279 821.5,-285 821.5,-291 821.5,-291 821.5,-373 821.5,-373 821.5,-379 815.5,-385 809.5,-385 809.5,-385 702.5,-385 702.5,-385 696.5,-385 690.5,-379 690.5,-373 690.5,-373 690.5,-291 690.5,-291 690.5,-285 696.5,-279 702.5,-279"/>
<text text-anchor="middle" x="756" y="-369.8" font-family="Times,serif" font-size="14.00">Seasonal</text>
<polyline fill="none" stroke="black" points="690.5,-362 821.5,-362 "/>
<text text-anchor="start" x="698.5" y="-346.8" font-family="Times,serif" font-size="14.00">id :integer</text>
<text text-anchor="start" x="698.5" y="-331.8" font-family="Times,serif" font-size="14.00">code :string</text>
<text text-anchor="start" x="698.5" y="-316.8" font-family="Times,serif" font-size="14.00">name :string</text>
<text text-anchor="start" x="698.5" y="-301.8" font-family="Times,serif" font-size="14.00">created_at :datetime</text>
<text text-anchor="start" x="698.5" y="-286.8" font-family="Times,serif" font-size="14.00">updated_at :datetime</text>
</g>
<!-- Seasonal&#45;&gt;OccupationalStatistic -->
<g id="edge17" class="edge"><title>Seasonal&#45;&gt;OccupationalStatistic</title>
<path fill="none" stroke="#87110b" d="M707.207,-272.732C698.851,-264.034 689.962,-255.486 681,-248 635.018,-209.591 577.662,-174.052 532.109,-148.262"/>
<ellipse fill="none" stroke="#87110b" cx="710.157" cy="-275.857" rx="4.00002" ry="4.00002"/>
<polygon fill="#87110b" stroke="#87110b" points="531.881,-148.134 525.366,-139.313 527.521,-145.685 523.162,-143.236 523.162,-143.236 523.162,-143.236 527.521,-145.685 520.958,-147.159 531.881,-148.134 531.881,-148.134"/>
</g>
</g>
</svg>
