<?xml version="1.0" encoding="UTF-8" standalone="no"?>
<!DOCTYPE svg PUBLIC "-//W3C//DTD SVG 1.1//EN"
 "http://www.w3.org/Graphics/SVG/1.1/DTD/svg11.dtd">
<!-- Generated by graphviz version 2.36.0 (20140111.2315)
 -->
<!-- Title: models_diagram Pages: 1 -->
<svg width="783pt" height="230pt"
 viewBox="0.00 0.00 783.00 230.00" xmlns="http://www.w3.org/2000/svg" xmlns:xlink="http://www.w3.org/1999/xlink">
<g id="graph0" class="graph" transform="scale(1 1) rotate(0) translate(4 226)">
<title>models_diagram</title>
<polygon fill="white" stroke="none" points="-4,4 -4,-226 779,-226 779,4 -4,4"/>
<!-- _diagram_info -->
<g id="node1" class="node"><title>_diagram_info</title>
<text text-anchor="start" x="8" y="-207.6" font-family="Times,serif" font-size="13.00">Models diagram</text>
<text text-anchor="start" x="8" y="-193.6" font-family="Times,serif" font-size="13.00">Date: Jan 09 2015 &#45; 14:21</text>
<text text-anchor="start" x="8" y="-179.6" font-family="Times,serif" font-size="13.00">Migration version: 20140521163751</text>
<text text-anchor="start" x="8" y="-165.6" font-family="Times,serif" font-size="13.00">Generated by RailRoady 1.3.0</text>
<text text-anchor="start" x="8" y="-151.6" font-family="Times,serif" font-size="13.00">http://railroady.prestonlee.com</text>
</g>
<!-- AreaType -->
<g id="node2" class="node"><title>AreaType</title>
<ellipse fill="none" stroke="black" cx="473" cy="-183" rx="46.2191" ry="18"/>
<text text-anchor="middle" x="473" y="-179.3" font-family="Times,serif" font-size="14.00">AreaType</text>
</g>
<!-- Area -->
<g id="node10" class="node"><title>Area</title>
<ellipse fill="none" stroke="black" cx="473" cy="-90" rx="27.4223" ry="18"/>
<text text-anchor="middle" x="473" y="-86.3" font-family="Times,serif" font-size="14.00">Area</text>
</g>
<!-- AreaType&#45;&gt;Area -->
<g id="edge1" class="edge"><title>AreaType&#45;&gt;Area</title>
<path fill="none" stroke="#a66774" d="M473,-156.729C473,-144.725 473,-130.362 473,-118.129"/>
<ellipse fill="none" stroke="#a66774" cx="473" cy="-160.884" rx="4" ry="4"/>
<polygon fill="#a66774" stroke="#a66774" points="473,-118.04 477.5,-108.04 473,-113.04 473,-108.04 473,-108.04 473,-108.04 473,-113.04 468.5,-108.04 473,-118.04 473,-118.04"/>
</g>
<!-- ReportCriterium -->
<g id="node3" class="node"><title>ReportCriterium</title>
<ellipse fill="none" stroke="black" cx="266" cy="-18" rx="69.3156" ry="18"/>
<text text-anchor="middle" x="266" y="-14.3" font-family="Times,serif" font-size="14.00">ReportCriterium</text>
</g>
<!-- OccupationGroup -->
<g id="node4" class="node"><title>OccupationGroup</title>
<ellipse fill="none" stroke="black" cx="611" cy="-183" rx="73.1654" ry="18"/>
<text text-anchor="middle" x="611" y="-179.3" font-family="Times,serif" font-size="14.00">OccupationGroup</text>
</g>
<!-- Report -->
<g id="node5" class="node"><title>Report</title>
<ellipse fill="none" stroke="black" cx="266" cy="-183" rx="34.1708" ry="18"/>
<text text-anchor="middle" x="266" y="-179.3" font-family="Times,serif" font-size="14.00">Report</text>
</g>
<!-- Report&#45;&gt;ReportCriterium -->
<g id="edge2" class="edge"><title>Report&#45;&gt;ReportCriterium</title>
<path fill="none" stroke="#6814cd" d="M246.429,-160.006C235.441,-146.144 222.802,-127.273 217,-108 212.387,-92.6793 211.168,-86.8992 217,-72 221.381,-60.8085 229.356,-50.5639 237.618,-42.1274"/>
<ellipse fill="none" stroke="#6814cd" cx="249.119" cy="-163.293" rx="4.00002" ry="4.00002"/>
<polygon fill="#6814cd" stroke="#6814cd" points="237.639,-42.1081 247.978,-38.4545 241.254,-38.6543 244.87,-35.2006 244.87,-35.2006 244.87,-35.2006 241.254,-38.6543 241.761,-31.9466 237.639,-42.1081 237.639,-42.1081"/>
</g>
<!-- Industry -->
<g id="node7" class="node"><title>Industry</title>
<ellipse fill="none" stroke="black" cx="266" cy="-90" rx="39.9464" ry="18"/>
<text text-anchor="middle" x="266" y="-86.3" font-family="Times,serif" font-size="14.00">Industry</text>
</g>
<!-- Report&#45;&gt;Industry -->
<g id="edge4" class="edge"><title>Report&#45;&gt;Industry</title>
<path fill="none" stroke="#de1050" d="M266,-154.549C266,-143.083 266,-129.792 266,-118.339"/>
<polygon fill="#de1050" stroke="#de1050" points="266,-154.884 261.5,-164.884 266,-159.884 266,-164.884 266,-164.884 266,-164.884 266,-159.884 270.5,-164.884 266,-154.884 266,-154.884"/>
<polygon fill="#de1050" stroke="#de1050" points="266,-118.04 270.5,-108.04 266,-113.04 266,-108.04 266,-108.04 266,-108.04 266,-113.04 261.5,-108.04 266,-118.04 266,-118.04"/>
</g>
<!-- Report&#45;&gt;Area -->
<g id="edge5" class="edge"><title>Report&#45;&gt;Area</title>
<path fill="none" stroke="#049fe3" d="M301.312,-166.875C335.759,-152.062 389.601,-128.755 436,-108 437.839,-107.177 439.727,-106.327 441.631,-105.466"/>
<polygon fill="#049fe3" stroke="#049fe3" points="300.891,-167.055 289.927,-166.868 296.297,-169.029 291.703,-171.003 291.703,-171.003 291.703,-171.003 296.297,-169.029 293.479,-175.137 300.891,-167.055 300.891,-167.055"/>
<polygon fill="#049fe3" stroke="#049fe3" points="442.021,-105.288 452.987,-105.236 446.571,-103.215 451.121,-101.141 451.121,-101.141 451.121,-101.141 446.571,-103.215 449.254,-97.0462 442.021,-105.288 442.021,-105.288"/>
</g>
<!-- Occupation -->
<g id="node11" class="node"><title>Occupation</title>
<ellipse fill="none" stroke="black" cx="376" cy="-90" rx="51.0191" ry="18"/>
<text text-anchor="middle" x="376" y="-86.3" font-family="Times,serif" font-size="14.00">Occupation</text>
</g>
<!-- Report&#45;&gt;Occupation -->
<g id="edge3" class="edge"><title>Report&#45;&gt;Occupation</title>
<path fill="none" stroke="#3eb2cc" d="M291.461,-160.937C308.618,-146.743 331.227,-128.039 348.747,-113.546"/>
<polygon fill="#3eb2cc" stroke="#3eb2cc" points="291.379,-161.005 280.805,-163.912 287.526,-164.192 283.673,-167.379 283.673,-167.379 283.673,-167.379 287.526,-164.192 286.542,-170.847 291.379,-161.005 291.379,-161.005"/>
<polygon fill="#3eb2cc" stroke="#3eb2cc" points="349.187,-113.181 359.761,-110.274 353.04,-109.994 356.892,-106.807 356.892,-106.807 356.892,-106.807 353.04,-109.994 354.024,-103.34 349.187,-113.181 349.187,-113.181"/>
</g>
<!-- DataType -->
<g id="node12" class="node"><title>DataType</title>
<ellipse fill="none" stroke="black" cx="125" cy="-90" rx="45.244" ry="18"/>
<text text-anchor="middle" x="125" y="-86.3" font-family="Times,serif" font-size="14.00">DataType</text>
</g>
<!-- Report&#45;&gt;DataType -->
<g id="edge6" class="edge"><title>Report&#45;&gt;DataType</title>
<path fill="none" stroke="#4c6fcf" d="M242.302,-159.926C235.925,-154.441 228.882,-148.771 222,-144 203.112,-130.905 180.667,-118.463 162.127,-108.928"/>
<polygon fill="#4c6fcf" stroke="#4c6fcf" points="242.466,-160.072 246.98,-170.066 246.213,-163.383 249.96,-166.694 249.96,-166.694 249.96,-166.694 246.213,-163.383 252.94,-163.322 242.466,-160.072 242.466,-160.072"/>
<polygon fill="#4c6fcf" stroke="#4c6fcf" points="162.021,-108.875 155.133,-100.341 157.56,-106.615 153.1,-104.356 153.1,-104.356 153.1,-104.356 157.56,-106.615 151.066,-108.37 162.021,-108.875 162.021,-108.875"/>
</g>
<!-- State -->
<g id="node6" class="node"><title>State</title>
<ellipse fill="none" stroke="black" cx="731" cy="-183" rx="28.3955" ry="18"/>
<text text-anchor="middle" x="731" y="-179.3" font-family="Times,serif" font-size="14.00">State</text>
</g>
<!-- StateMsa -->
<g id="node9" class="node"><title>StateMsa</title>
<ellipse fill="none" stroke="black" cx="731" cy="-90" rx="44.2946" ry="18"/>
<text text-anchor="middle" x="731" y="-86.3" font-family="Times,serif" font-size="14.00">StateMsa</text>
</g>
<!-- State&#45;&gt;StateMsa -->
<g id="edge7" class="edge"><title>State&#45;&gt;StateMsa</title>
<path fill="none" stroke="#cf9751" d="M731,-156.729C731,-144.725 731,-130.362 731,-118.129"/>
<ellipse fill="none" stroke="#cf9751" cx="731" cy="-160.884" rx="4" ry="4"/>
<polygon fill="#cf9751" stroke="#cf9751" points="731,-118.04 735.5,-108.04 731,-113.04 731,-108.04 731,-108.04 731,-108.04 731,-113.04 726.5,-108.04 731,-118.04 731,-118.04"/>
</g>
<!-- Industry&#45;&gt;ReportCriterium -->
<g id="edge9" class="edge"><title>Industry&#45;&gt;ReportCriterium</title>
<path fill="none" stroke="#e8b64a" d="M266,-63.6398C266,-58.0629 266,-52.1319 266,-46.4761"/>
<ellipse fill="none" stroke="#e8b64a" cx="266" cy="-67.6966" rx="4" ry="4"/>
<polygon fill="#e8b64a" stroke="#e8b64a" points="266,-46.1043 270.5,-36.1043 266,-41.1043 266,-36.1043 266,-36.1043 266,-36.1043 266,-41.1043 261.5,-36.1044 266,-46.1043 266,-46.1043"/>
</g>
<!-- OccupationalStatistic -->
<g id="node8" class="node"><title>OccupationalStatistic</title>
<ellipse fill="none" stroke="black" cx="439" cy="-18" rx="85.19" ry="18"/>
<text text-anchor="middle" x="439" y="-14.3" font-family="Times,serif" font-size="14.00">OccupationalStatistic</text>
</g>
<!-- Industry&#45;&gt;OccupationalStatistic -->
<g id="edge8" class="edge"><title>Industry&#45;&gt;OccupationalStatistic</title>
<path fill="none" stroke="#5d3993" d="M302.46,-74.2472C328.473,-63.7219 363.688,-49.4733 391.839,-38.0826"/>
<ellipse fill="none" stroke="#5d3993" cx="298.664" cy="-75.7832" rx="4.00001" ry="4.00001"/>
<polygon fill="#5d3993" stroke="#5d3993" points="392.205,-37.9345 403.163,-38.355 396.84,-36.059 401.475,-34.1836 401.475,-34.1836 401.475,-34.1836 396.84,-36.059 399.787,-30.0121 392.205,-37.9345 392.205,-37.9345"/>
</g>
<!-- Area&#45;&gt;ReportCriterium -->
<g id="edge11" class="edge"><title>Area&#45;&gt;ReportCriterium</title>
<path fill="none" stroke="#ae8ad4" d="M444.358,-75.4039C441.554,-74.2048 438.735,-73.0496 436,-72 398.435,-57.583 355.125,-44.126 321.622,-34.3795"/>
<ellipse fill="none" stroke="#ae8ad4" cx="448.019" cy="-77.0217" rx="4.00002" ry="4.00002"/>
<polygon fill="#ae8ad4" stroke="#ae8ad4" points="321.61,-34.3761 313.249,-27.2806 316.806,-32.9902 312.002,-31.6042 312.002,-31.6042 312.002,-31.6042 316.806,-32.9902 310.755,-35.9279 321.61,-34.3761 321.61,-34.3761"/>
</g>
<!-- Area&#45;&gt;OccupationalStatistic -->
<g id="edge10" class="edge"><title>Area&#45;&gt;OccupationalStatistic</title>
<path fill="none" stroke="#6732bb" d="M461.373,-65.0625C458.25,-58.6325 454.857,-51.6473 451.68,-45.106"/>
<ellipse fill="none" stroke="#6732bb" cx="463.195" cy="-68.8129" rx="4.00002" ry="4.00002"/>
<polygon fill="#6732bb" stroke="#6732bb" points="451.605,-44.9513 451.284,-33.9901 449.42,-40.4538 447.236,-35.9562 447.236,-35.9562 447.236,-35.9562 449.42,-40.4538 443.188,-37.9223 451.605,-44.9513 451.605,-44.9513"/>
</g>
<!-- Occupation&#45;&gt;ReportCriterium -->
<g id="edge13" class="edge"><title>Occupation&#45;&gt;ReportCriterium</title>
<path fill="none" stroke="#e9c4c9" d="M345.339,-69.4887C331.176,-60.4759 314.316,-49.7468 299.788,-40.5016"/>
<ellipse fill="none" stroke="#e9c4c9" cx="349.028" cy="-71.8357" rx="4.00002" ry="4.00002"/>
<polygon fill="#e9c4c9" stroke="#e9c4c9" points="299.525,-40.3343 293.505,-31.169 295.307,-37.6499 291.089,-34.9655 291.089,-34.9655 291.089,-34.9655 295.307,-37.6499 288.673,-38.762 299.525,-40.3343 299.525,-40.3343"/>
</g>
<!-- Occupation&#45;&gt;OccupationalStatistic -->
<g id="edge12" class="edge"><title>Occupation&#45;&gt;OccupationalStatistic</title>
<path fill="none" stroke="#830f53" d="M396.526,-66.1935C403.031,-58.9654 410.25,-50.9443 416.863,-43.5962"/>
<ellipse fill="none" stroke="#830f53" cx="393.606" cy="-69.4378" rx="4.00002" ry="4.00002"/>
<polygon fill="#830f53" stroke="#830f53" points="417.05,-43.3892 427.084,-38.9666 420.395,-39.6727 423.739,-35.9562 423.739,-35.9562 423.739,-35.9562 420.395,-39.6727 420.395,-32.9459 417.05,-43.3892 417.05,-43.3892"/>
</g>
<!-- DataType&#45;&gt;ReportCriterium -->
<g id="edge15" class="edge"><title>DataType&#45;&gt;ReportCriterium</title>
<path fill="none" stroke="#c649ee" d="M159.412,-71.9161C179.514,-61.9362 204.977,-49.2952 225.973,-38.8713"/>
<ellipse fill="none" stroke="#c649ee" cx="155.769" cy="-73.7246" rx="4.00002" ry="4.00002"/>
<polygon fill="#c649ee" stroke="#c649ee" points="226.013,-38.8519 236.971,-38.4357 230.491,-36.6285 234.97,-34.4051 234.97,-34.4051 234.97,-34.4051 230.491,-36.6285 232.969,-30.3745 226.013,-38.8519 226.013,-38.8519"/>
</g>
<!-- DataType&#45;&gt;OccupationalStatistic -->
<g id="edge14" class="edge"><title>DataType&#45;&gt;OccupationalStatistic</title>
<path fill="none" stroke="#4678cd" d="M171.513,-78.6309C224.785,-66.755 312.472,-47.2069 372.842,-33.7487"/>
<ellipse fill="none" stroke="#4678cd" cx="167.407" cy="-79.5462" rx="4.00001" ry="4.00001"/>
<polygon fill="#4678cd" stroke="#4678cd" points="372.899,-33.736 383.638,-35.9522 377.779,-32.648 382.659,-31.5601 382.659,-31.5601 382.659,-31.5601 377.779,-32.648 381.68,-27.1679 372.899,-33.736 372.899,-33.736"/>
</g>
<!-- BlsColumnMapper -->
<g id="node13" class="node"><title>BlsColumnMapper</title>
<ellipse fill="none" stroke="black" cx="99" cy="-18" rx="78.9404" ry="18"/>
<text text-anchor="middle" x="99" y="-14.3" font-family="Times,serif" font-size="14.00">BlsColumnMapper</text>
</g>
<!-- DataType&#45;&gt;BlsColumnMapper -->
<g id="edge16" class="edge"><title>DataType&#45;&gt;BlsColumnMapper</title>
<path fill="none" stroke="#3c4169" d="M115.918,-64.5475C113.699,-58.5741 111.312,-52.1485 109.051,-46.0611"/>
<ellipse fill="none" stroke="#3c4169" cx="117.313" cy="-68.3052" rx="4.00001" ry="4.00001"/>
<polygon fill="#3c4169" stroke="#3c4169" points="108.898,-45.6496 109.635,-34.7084 107.158,-40.9624 105.417,-36.2753 105.417,-36.2753 105.417,-36.2753 107.158,-40.9624 101.198,-37.8422 108.898,-45.6496 108.898,-45.6496"/>
</g>
<!-- Seasonal -->
<g id="node14" class="node"><title>Seasonal</title>
<ellipse fill="none" stroke="black" cx="561" cy="-90" rx="42.3701" ry="18"/>
<text text-anchor="middle" x="561" y="-86.3" font-family="Times,serif" font-size="14.00">Seasonal</text>
</g>
<!-- Seasonal&#45;&gt;OccupationalStatistic -->
<g id="edge17" class="edge"><title>Seasonal&#45;&gt;OccupationalStatistic</title>
<path fill="none" stroke="#028ab6" d="M529.797,-71.0965C513.399,-61.688 493.193,-50.0944 476.009,-40.2346"/>
<ellipse fill="none" stroke="#028ab6" cx="533.427" cy="-73.1796" rx="4.00002" ry="4.00002"/>
<polygon fill="#028ab6" stroke="#028ab6" points="476.008,-40.2341 469.574,-31.3542 471.671,-37.7458 467.334,-35.2574 467.334,-35.2574 467.334,-35.2574 471.671,-37.7458 465.095,-39.1605 476.008,-40.2341 476.008,-40.2341"/>
</g>
</g>
</svg>
